<?xml version="1.0" standalone="no"?>
<!DOCTYPE svg PUBLIC "-//W3C//DTD SVG 1.1//EN" "http://www.w3.org/Graphics/SVG/1.1/DTD/svg11.dtd" >
<svg xmlns="http://www.w3.org/2000/svg">
<metadata>Generated by IcoMoon</metadata>
<defs>
<font id="icomoon" horiz-adv-x="1024">
<font-face units-per-em="1024" ascent="960" descent="-64" />
<missing-glyph horiz-adv-x="1024" />
<glyph unicode="&#x20;" horiz-adv-x="512" d="" />
<glyph unicode="&#xe900;" glyph-name="sign-out-1" horiz-adv-x="1088" d="M576 735.997v-103.2h-192c-53 0-96-43-96-96v-177.2c0-52.998 43-96 96-96h192v-103.2c0-85.203 103.398-128.403 163.795-67.802l288 287.802c37.402 37.4 37.402 98.2 0 135.8l-288 288c-60.198 59.8-163.795 17.2-163.795-68.2zM960 447.997l-288-288.003v199.403h-288v177.2h288v199.4l288-288zM224 831.997h168c13.2 0 24-10.8 24-24v-48c0-13.2-10.8-24-24-24h-168c-53 0-96-43-96-96v-384.003c0-52.998 43-96 96-96h168c13.2 0 24-10.797 24-24v-48c0-13.197-10.8-24-24-24h-168c-106 0-192 86.003-192 192v384.003c0 106 86 192 192 192z" />
<glyph unicode="&#xe901;" glyph-name="headphones" horiz-adv-x="1088" d="M416 384h-96c-70.7 0-128-57.4-128-128.237v-127.526c0-70.816 57.3-128.237 128-128.237h96c35.34 0 64 28.717 64 64.122v255.757c0 35.421-28.66 64.122-64 64.122zM384 96.179h-64c-17.64 0-32 14.381-32 32.058v127.526c0 17.677 14.36 32.058 32 32.058h64v-191.642zM544 896c-286.18 0-502.86-238.26-512-512v-224c0-17.677 14.32-32 32-32h32c17.68 0 32 14.323 32 32v224c0 229.34 186.66 415.6 416 415.64 229.338-0.040 416-186.3 416-415.64v-224c0-17.677 14.323-32 32-32h32c17.677 0 32 14.323 32 32v224c-9.139 273.74-225.818 512-512 512zM768 384h-96c-35.34 0-64-28.7-64-64.122v-255.757c0-35.405 28.66-64.122 64-64.122h96c70.701 0 128 57.421 128 128.237v127.526c0 70.817-57.299 128.237-128 128.237zM800 128.237c0-17.677-14.362-32.058-32-32.058h-64v191.642h64c17.638 0 32-14.381 32-32.058v-127.526z" />
<glyph unicode="&#xe902;" glyph-name="receipt" horiz-adv-x="960" d="M720 383.996h-480c-8.8 0-16-7.2-16-16v-64.003c0-8.8 7.2-16 16-16h480c8.8 0 16 7.2 16 16v64.003c0 8.8-7.2 16-16 16zM833.6 948.596l-87.002-62.6-77.197 55.6c-33.601 24.2-78.401 24.2-112.202 0l-77.2-55.6-77.2 55.6c-16.326 11.799-35.956 18.15-56.1 18.15s-39.774-6.351-56.1-18.15l-77.201-55.6-87 62.6c-39.6 28.4-94.4 0.2-94.4-48.4v-904.599c0-47.603 54.2-77.203 94.4-48.403l87 62.803 77.201-55.603c33.6-24.198 78.399-24.198 112.2 0l77.2 55.603 77.2-55.603c33.6-24.198 78.6-24.198 112.202 0l77.197 55.603 87.002-62.598c39.597-28.403 94.4-0.205 94.4 48.198v904.599c0 47.8-54.202 77.2-94.4 48.4zM832 66.995l-85.402 61.402-133.398-96-133.4 96-133.4-96-133.4 96-85-61.402v762.001l85.4-61.4 133.4 96 133.4-96 133.4 96 133.402-96 84.998 61.4v-762.001zM720 607.996h-480c-8.8 0-16-7.2-16-16v-64c0-8.8 7.2-16 16-16h480c8.8 0 16 7.2 16 16v64c0 8.8-7.2 16-16 16z" />
<glyph unicode="&#xe903;" glyph-name="pages" horiz-adv-x="1088" d="M1056 448.063c0 25.72-15.059 48.84-38.24 58.88l-159.379 69.16 159.322 69.14c23.238 10.060 38.317 33.18 38.317 58.88s-15.059 48.82-38.24 58.84l-436.459 189.34c-23.68 10.34-50.88 10.38-74.56 0.040l-436.44-189.36c-23.26-10.060-38.32-33.18-38.32-58.879s15.060-48.82 38.24-58.84l159.4-69.16-159.34-69.14c-23.24-10.040-38.3-33.18-38.3-58.9 0-25.68 15.060-48.82 38.24-58.84l159.38-69.14-159.3-69.121c-23.26-10.061-38.32-33.178-38.32-58.899 0-25.683 15.060-48.819 38.24-58.842l436.56-189.376c11.727-5.12 24.385-7.763 37.18-7.763 12.68 0.038 25.38 2.598 37.18 7.718l436.498 189.382c23.245 10.061 38.323 33.178 38.323 58.88 0 25.722-15.059 48.838-38.24 58.88l-159.36 69.14 159.296 69.12c23.264 10.060 38.323 33.18 38.323 58.86zM542.94 864.303l0.060-0.040h-0.12l0.060 0.040zM544 863.843l368.32-159.78-367.26-160.18-369.24 160.22 368.18 159.74zM912.378 192.006l-367.318-160.141-369.24 160.218 174.42 75.68 156.58-67.917c11.727-5.12 24.385-7.763 37.18-7.763 12.68 0.038 25.38 2.598 37.18 7.718l156.58 67.942 174.618-75.738zM545.060 287.885l-369.24 160.219 174.44 75.68 156.56-67.92c11.727-5.117 24.385-7.759 37.18-7.76 12.68 0.040 25.38 2.6 37.18 7.72l156.58 67.94 174.618-75.76-367.318-160.119z" />
<glyph unicode="&#xe904;" glyph-name="link" horiz-adv-x="1071" d="M609.373 522.098c65.024-65.026 69.208-168.362 12.409-238.203-7.945-9.84-3.542-4.92-108.106-109.48-69.612-69.613-182.337-69.674-251.986 0-69.632 69.604-69.661 182.323 0 251.988 41.711 41.709 65.972 66.053 80.702 80.762 9.499 9.485 25.876 2.996 26.073-10.426 0.237-16.222 2.263-32.369 6.040-48.143 1.23-5.129-0.346-10.524-4.075-14.252l-58.353-58.34c-41.688-41.719-41.856-109.321 0-151.203 41.714-41.691 109.317-41.858 151.2 0l95.697 95.707c41.64 41.654 41.714 109.475 0 151.189-8.453 8.467-18.269 15.448-29.035 20.657-5.883 2.842-9.142 9.227-8.35 15.713 1.722 14.155 8.010 27.854 18.856 38.697l5.567 5.568c4.613 4.615 11.678 5.848 17.51 2.92 16.547-8.303 32.061-19.359 45.852-33.153zM808.858 721.585c-69.651 69.676-182.374 69.613-251.988 0-104.564-104.562-100.163-99.642-108.107-109.48-56.798-69.839-52.616-173.177 12.409-238.206 13.792-13.791 29.305-24.851 45.848-33.154 5.832-2.923 12.898-1.69 17.515 2.923l5.567 5.571c10.845 10.84 17.129 24.539 18.856 38.693 0.791 6.484-2.467 12.87-8.35 15.714-10.771 5.204-20.582 12.19-29.035 20.657-41.714 41.714-41.64 109.535 0 151.185l95.697 95.709c41.882 41.856 109.484 41.688 151.198 0 41.854-41.883 41.691-109.487 0-151.2l-58.349-58.341c-3.733-3.728-5.306-9.123-4.077-14.252 3.779-15.779 5.804-31.926 6.042-48.147 0.2-13.419 16.575-19.907 26.070-10.426 14.732 14.713 38.996 39.056 80.705 80.766 69.66 69.662 69.627 182.381 0 251.988z" />
<glyph unicode="&#xe905;" glyph-name="gem-1" horiz-adv-x="1216" d="M960.045 960h-704.003c-8 0-15.6-4-20-10.8l-200-294.4c-5.8-8.8-5.2-20.4 1.4-28.4l552-681.6c9.6-11.802 27.6-11.802 37.2 0l552.001 681.6c6.605 8.2 7.2 19.6 1.402 28.4l-199.802 294.4c-4.595 6.8-12 10.8-20.198 10.8zM921.446 864l126.598-192h-136.8l-103.398 192h113.6zM517.242 864h181.401l103.405-192h-388.006l103.2 192zM294.643 864h113.6l-103.4-192h-136.8l126.6 192zM208.643 576h102.8l136.6-320-239.4 320zM414.442 576h387.203l-193.603-486.598-193.6 486.598zM768.045 256l136.403 320h102.797l-239.2-320z" />
<glyph unicode="&#xe906;" glyph-name="home-alt" horiz-adv-x="1216" d="M1172.486 465.163l-492.742 404.82c-20.141 16.772-45.527 25.956-71.74 25.956s-51.596-9.184-71.74-25.956l-492.74-404.82c-3.223-2.698-5.883-6.003-7.828-9.729s-3.138-7.797-3.509-11.983c-0.371-4.186 0.085-8.404 1.344-12.413s3.295-7.732 5.993-10.955l20.48-24.6c5.447-6.503 13.253-10.577 21.702-11.327s16.851 1.885 23.358 7.327l54.94 45.12v-372.622c0.048-16.96 6.806-33.21 18.798-45.203 11.992-11.987 28.243-18.746 45.202-18.797h256c16.959 0.051 33.211 6.81 45.203 18.797 11.992 11.994 18.75 28.243 18.797 45.203v208h128.002v-208c0.045-16.96 6.803-33.21 18.797-45.203 11.994-11.987 28.243-18.746 45.203-18.797h256c16.877 0.038 33.062 6.726 45.043 18.618s18.79 28.026 18.957 44.902v373.142l55.059-45.24c6.509-5.442 14.906-8.077 23.36-7.327 8.448 0.75 16.25 4.824 21.696 11.327l20.461 24.58c2.707 3.231 4.749 6.966 6.010 10.989s1.715 8.255 1.331 12.453c-0.378 4.198-1.587 8.28-3.552 12.010-1.958 3.731-4.64 7.037-7.885 9.728zM959.706 95.981h-191.699v208c-0.051 16.961-6.81 33.212-18.797 45.204-11.994 11.992-28.243 18.75-45.203 18.797h-192.002c-16.959-0.047-33.21-6.806-45.202-18.797s-18.75-28.243-18.798-45.204v-208h-192v419.462l352 289.24 352.002-289.12-0.301-419.582z" />
<glyph unicode="&#xe907;" glyph-name="bullet" d="M384 832c0 70.692 57.308 128 128 128v0c70.692 0 128-57.308 128-128v-768c0-70.692-57.308-128-128-128v0c-70.692 0-128 57.308-128 128v768zM896 576c70.692 0 128-57.308 128-128v0c0-70.692-57.308-128-128-128h-768c-70.692 0-128 57.308-128 128v0c0 70.693 57.308 128 128 128h768z" />
<glyph unicode="&#xe909;" glyph-name="loading" d="M960 384h-128c-35.376 0-64 28.624-64 64s28.624 64 64 64h128c35.376 0 64-28.624 64-64s-28.624-64-64-64zM783.5 629c-25-25-65.5-25-90.5 0s-25 65.5 0 90.5l90.5 90.5c25 25 65.5 25 90.5 0s25-65.5 0-90.5l-90.5-90.5zM512-64c-35.376 0-64 28.624-64 64v128c0 35.376 28.624 64 64 64s64-28.624 64-64v-128c0-35.376-28.624-64-64-64zM512 704c-35.376 0-64 28.624-64 64v128c0 35.376 28.624 64 64 64s64-28.624 64-64v-128c0-35.376-28.624-64-64-64zM240.5 86c-25-25-65.5-25-90.5 0-25 24.938-25 65.5 0 90.5l90.5 90.5c25 25 65.5 25 90.5 0s25-65.5 0-90.5l-90.5-90.5zM240.5 629l-90.5 90.5c-25 25-25 65.5 0 90.5s65.5 25 90.5 0l90.5-90.5c25-25 25-65.5 0-90.5s-65.5-25-90.5 0zM256 448c0-35.376-28.624-64-64-64h-128c-35.376 0-64 28.624-64 64s28.624 64 64 64h128c35.376 0 64-28.624 64-64zM783.5 267l90.5-90.5c25-25 25-65.562 0-90.5-25-25-65.5-25-90.5 0l-90.5 90.5c-25 25-25 65.5 0 90.5s65.5 25 90.5 0z" />
<glyph unicode="&#xe90a;" glyph-name="gem" d="M197.601 438.422l314.358 521.578 314.249-521.578-314.232-185.726-314.375 185.726zM197.601 378.857l314.358-185.716 314.497 185.716-314.481-442.865-314.375 442.865z" />
<glyph unicode="&#xe90b;" glyph-name="heart" d="M950.857 610.286c0 160.571-108.571 194.286-200 194.286-85.143 0-181.143-92-210.857-127.429-13.714-16.571-42.286-16.571-56 0-29.714 35.429-125.714 127.429-210.857 127.429-91.429 0-200-33.714-200-194.286 0-104.571 105.714-201.714 106.857-202.857l332-320 331.429 319.429c1.714 1.714 107.429 98.857 107.429 203.429zM1024 610.286c0-137.143-125.714-252-130.857-257.143l-356-342.857c-6.857-6.857-16-10.286-25.143-10.286s-18.286 3.429-25.143 10.286l-356.571 344c-4.571 4-130.286 118.857-130.286 256 0 167.429 102.286 267.429 273.143 267.429 100 0 193.714-78.857 238.857-123.429 45.143 44.571 138.857 123.429 238.857 123.429 170.857 0 273.143-100 273.143-267.429z" />
<glyph unicode="&#xe90c;" glyph-name="file" d="M864 671.999h-338.76l-109.24 109.24c-5.921 5.969-12.97 10.701-20.737 13.922s-16.095 4.865-24.503 4.838h-210.76c-16.974 0-33.252-6.742-45.255-18.745s-18.745-28.281-18.745-45.255v-578.483c0.021-16.307 6.509-31.942 18.042-43.475s27.168-18.022 43.478-18.042h710.038c16.026 0.019 31.386 6.394 42.714 17.728 11.334 11.328 17.709 26.688 17.728 42.714v451.558c0 16.974-6.746 33.253-18.746 45.255s-28.282 18.745-45.254 18.745zM160 735.999h210.76l64-64h-274.76v64zM864 160h-704v447.999h704v-447.999z" />
<glyph unicode="&#xe90d;" glyph-name="time" d="M512 864c-82.277 0-162.706-24.398-231.117-70.109s-121.731-110.681-153.217-186.695c-31.486-76.014-39.725-159.658-23.673-240.354 16.051-80.698 55.672-154.823 113.85-212.999s132.303-97.798 212.999-113.85c80.696-16.051 164.34-7.814 240.351 23.674 76.019 31.488 140.986 84.806 186.701 153.216 45.709 68.41 70.106 148.84 70.106 231.117-0.115 110.294-43.981 216.038-121.971 294.028s-183.734 121.856-294.029 121.972zM512 96c-69.619 0-137.674 20.646-195.56 59.322-57.886 38.682-103.003 93.651-129.645 157.971-26.643 64.322-33.613 135.098-20.031 203.379s47.107 131.002 96.335 180.23c49.228 49.228 111.948 82.753 180.23 96.335s139.057 6.611 203.379-20.031c64.32-26.642 119.29-71.759 157.971-129.645 38.675-57.886 59.322-125.942 59.322-195.561-0.109-93.324-37.222-182.797-103.213-248.787s-155.463-103.104-248.787-103.213zM768 448c0-8.487-3.373-16.627-9.37-22.627-6.003-6.001-14.144-9.373-22.63-9.373h-224c-8.487 0-16.626 3.372-22.627 9.373s-9.373 14.14-9.373 22.627v224c0 8.487 3.372 16.627 9.373 22.627s14.14 9.373 22.627 9.373c8.487 0 16.627-3.372 22.628-9.373s9.372-14.14 9.372-22.627v-192h192c8.486 0 16.627-3.372 22.63-9.373 5.997-6.001 9.37-14.14 9.37-22.627z" />
<glyph unicode="&#xe90e;" glyph-name="wa" horiz-adv-x="1081" d="M860.444 192c-105.859 0-192 86.141-192 192 0 105.856 86.141 192 192 192h106.667v85.333c0 47.061-38.269 85.333-85.333 85.333h-42.667v85.333c0 47.061-38.269 85.333-85.333 85.333h-597.333c-30.181-0.072-59.365-10.814-82.39-30.326s-38.41-46.537-43.434-76.298c-0.939-3.499-2.176-6.912-2.176-10.709v-650.667c0-70.571 57.429-128 128-128h725.333c47.064 0 85.333 38.269 85.333 85.333v85.333h-106.667zM113.778 789.333c0 23.509 19.115 42.667 42.667 42.667h597.333v-85.333h-597.333c-23.552 0-42.667 19.157-42.667 42.667zM1020.444 512h-160c-70.571 0-128-57.429-128-128s57.429-128 128-128h160c8.488 0 16.629 3.374 22.625 9.375 6.002 5.996 9.375 14.137 9.375 22.625v192c0 8.487-3.374 16.626-9.375 22.628-5.996 6.001-14.137 9.372-22.625 9.372zM860.444 341.333c-11.315 0-22.17 4.494-30.168 12.498-8.004 7.999-12.498 18.853-12.498 30.168s4.494 22.168 12.498 30.17c7.999 8.001 18.853 12.497 30.168 12.497s22.17-4.495 30.168-12.497c8.004-8.001 12.498-18.854 12.498-30.17s-4.494-22.17-12.498-30.168c-7.999-8.004-18.853-12.498-30.168-12.498z" />
<glyph unicode="&#xe90f;" glyph-name="add" d="M512-64c-282.75 0-512 229.218-512 512s229.25 512 512 512c282.782 0 512-229.218 512-512s-229.218-512-512-512zM512 832c-212.062 0-384-171.938-384-384s171.938-384 384-384c212.094 0 384 171.938 384 384s-171.906 384-384 384zM576 192h-128v192h-192v128h192v192h128v-192h192v-128h-192v-192z" />
<glyph unicode="&#xe910;" glyph-name="quote" d="M0 832v-768l384 384v384zM640 832v-768l384 384v384z" />
<glyph unicode="&#xe911;" glyph-name="keyboard_arrow_up" d="M316 280.667l-60 60 256 256 256-256-60-60-196 196z" />
<glyph unicode="&#xe912;" glyph-name="keyboard_arrow_right" d="M366 230.667l196 196-196 196 60 60 256-256-256-256z" />
<glyph unicode="&#xe913;" glyph-name="keyboard_arrow_left" d="M658 230.667l-60-60-256 256 256 256 60-60-196-196z" />
<glyph unicode="&#xe914;" glyph-name="keyboard_arrow_down" d="M316 572.667l196-196 196 196 60-60-256-256-256 256z" />
<glyph unicode="&#xe915;" glyph-name="search" d="M684.416 262.144c-1.451-1.109-2.859-2.347-4.224-3.712s-2.56-2.731-3.712-4.224c-53.675-51.755-126.677-83.541-207.147-83.541-82.475 0-157.099 33.365-211.2 87.467s-87.467 128.725-87.467 211.2 33.365 157.099 87.467 211.2 128.725 87.467 211.2 87.467 157.099-33.365 211.2-87.467 87.467-128.725 87.467-211.2c0-80.469-31.787-153.472-83.584-207.189zM926.165 72.832l-156.8 156.8c52.523 65.707 83.968 149.035 83.968 239.701 0 106.027-43.008 202.069-112.469 271.531s-165.504 112.469-271.531 112.469-202.069-43.008-271.531-112.469-112.469-165.504-112.469-271.531 43.008-202.069 112.469-271.531 165.504-112.469 271.531-112.469c90.667 0 173.995 31.445 239.701 83.968l156.8-156.8c16.683-16.683 43.691-16.683 60.331 0s16.683 43.691 0 60.331z" />
<glyph unicode="&#xe916;" glyph-name="hide" d="M215.679 821.569c-2.81 3.168-6.221 5.746-10.035 7.586s-7.955 2.904-12.183 3.132c-4.229 0.228-8.461-0.387-12.45-1.807s-7.657-3.618-10.791-6.465c-3.134-2.848-5.671-6.29-7.465-10.126s-2.809-7.989-2.986-12.22c-0.177-4.231 0.488-8.455 1.955-12.427s3.709-7.613 6.595-10.713l76.96-84.68c-145.28-89.16-207.76-226.6-210.52-232.84-1.819-4.093-2.76-8.521-2.76-13s0.94-8.908 2.76-13c1.4-3.16 35.28-78.282 110.6-153.603 100.36-100.318 227.12-153.355 366.64-153.355 71.703-0.41 142.684 14.353 208.282 43.321l87.996-96.842c2.81-3.169 6.224-5.746 10.035-7.589 3.817-1.838 7.959-2.901 12.186-3.129s8.459 0.387 12.447 1.803c3.994 1.422 7.657 3.618 10.792 6.468s5.672 6.292 7.47 10.126c1.792 3.834 2.805 7.987 2.981 12.22s-0.484 8.454-1.951 12.425c-1.468 3.977-3.709 7.617-6.599 10.718l-639.958 703.997zM404.999 518.209l166.683-183.401c-25.103-13.204-53.878-17.698-81.809-12.777s-53.437 18.984-72.513 39.97c-19.075 20.986-30.639 47.718-32.877 75.992s4.979 56.489 20.516 80.217zM511.999 192.051c-123.12 0-230.68 44.76-319.72 133.001-36.548 36.318-67.631 77.75-92.28 122.998 18.76 35.16 78.64 133.56 189.4 197.52l72-79c-27.874-35.7-42.231-80.105-40.531-125.367s19.347-88.463 49.82-121.976c30.474-33.508 71.813-55.165 116.71-61.138 44.898-5.979 90.461 4.113 128.639 28.484l58.92-64.802c-51.996-19.951-107.263-30.032-162.959-29.719zM536 573.769c-8.338 1.591-15.703 6.43-20.474 13.451s-6.557 15.65-4.966 23.989c1.591 8.338 6.43 15.703 13.451 20.474s15.65 6.557 23.989 4.966c40.783-7.906 77.92-28.786 105.87-59.523 27.944-30.738 45.21-69.686 49.209-111.036 0.791-8.45-1.809-16.868-7.225-23.401s-13.204-10.648-21.652-11.439c-1.001-0.059-2.002-0.059-3.004 0-7.999-0.035-15.718 2.928-21.641 8.302s-9.62 12.773-10.359 20.737c-2.691 27.505-14.188 53.405-32.785 73.85-18.591 20.446-43.287 34.344-70.413 39.63zM989.121 435.009c-1.684-3.76-42.2-93.483-133.444-175.198-3.118-2.884-6.775-5.114-10.763-6.571-3.988-1.451-8.226-2.094-12.464-1.894-4.244 0.199-8.402 1.24-12.237 3.066-3.829 1.826-7.265 4.392-10.098 7.555-2.827 3.163-5.001 6.855-6.394 10.871-1.388 4.011-1.963 8.255-1.695 12.493s1.377 8.38 3.26 12.18c1.883 3.806 4.506 7.196 7.714 9.978 44.76 40.215 82.364 87.744 111.201 140.559-24.701 45.289-55.854 86.749-92.479 123.080-89.042 88.16-196.602 132.92-319.722 132.92-25.941 0.031-51.842-2.069-77.44-6.28-4.163-0.736-8.43-0.641-12.555 0.282s-8.027 2.653-11.48 5.092c-3.453 2.439-6.388 5.538-8.636 9.118s-3.765 7.57-4.462 11.739c-0.697 4.169-0.562 8.435 0.398 12.552s2.728 8.002 5.199 11.432c2.471 3.43 5.597 6.336 9.197 8.551s7.604 3.695 11.78 4.354c29.087 4.803 58.519 7.198 88 7.16 139.521 0 266.28-53.040 366.638-153.4 75.321-75.32 109.204-150.48 110.603-153.64 1.82-4.093 2.759-8.521 2.759-13s-0.939-8.908-2.759-13h-0.119z" />
<glyph unicode="&#xe917;" glyph-name="refresh" d="M896 447.959c0.010-100.956-39.736-197.857-110.638-269.722-70.902-71.869-167.255-112.922-268.201-114.278h-5.161c-98.071-0.246-192.468 37.284-263.6 104.796-3.055 2.893-5.51 6.354-7.226 10.189-1.717 3.84-2.66 7.977-2.777 12.18s0.595 8.387 2.095 12.319c1.5 3.927 3.76 7.521 6.648 10.573 2.889 3.057 6.352 5.509 10.19 7.229 3.838 1.715 7.976 2.657 12.179 2.775s8.388-0.594 12.315-2.094c3.928-1.5 7.521-3.758 10.576-6.651 45.752-43.146 103.203-71.854 165.177-82.545 61.975-10.685 125.724-2.872 183.283 22.461s106.378 67.067 140.36 119.987c33.976 52.915 51.615 114.673 50.698 177.555s-20.337 124.1-55.844 176.007-85.519 92.202-143.79 115.851c-58.271 23.648-122.222 29.602-183.858 17.118s-118.229-42.854-162.706-87.314c-0.327-0.353-0.674-0.687-1.040-1l-106.32-97.44h109.64c8.487 0 16.626-3.372 22.627-9.373s9.373-14.14 9.373-22.627c0-8.487-3.372-16.627-9.373-22.628s-14.14-9.372-22.627-9.372h-192c-8.487 0-16.626 3.371-22.627 9.372s-9.373 14.141-9.373 22.628v192c0 8.487 3.372 16.626 9.373 22.627s14.14 9.373 22.627 9.373c8.487 0 16.626-3.372 22.627-9.373s9.373-14.14 9.373-22.627v-119.2l113 103.2c53.759 53.55 122.179 89.973 196.621 104.671 74.44 14.697 151.573 7.010 221.65-22.090s129.961-78.311 172.093-141.418c42.132-63.108 64.625-137.283 64.635-213.16z" />
<glyph unicode="&#xe918;" glyph-name="report" d="M139.040 792.036c-3.442-2.984-6.208-6.669-8.112-10.808s-2.902-8.636-2.928-13.192v-672.001c0-8.489 3.372-16.625 9.373-22.625s14.14-9.375 22.627-9.375c8.487 0 16.626 3.374 22.627 9.375s9.373 14.136 9.373 22.625v176.922c107.16 84.639 199.48 38.999 305.8-13.64 65.599-32.44 136.24-67.4 212.001-67.4 55.721 0 114.161 19 175.278 71.997 3.446 2.985 6.211 6.671 8.115 10.808 1.9 4.137 2.898 8.637 2.924 13.194v480.118c-0.010 6.142-1.792 12.15-5.13 17.307s-8.084 9.245-13.686 11.775c-5.596 2.53-11.802 3.397-17.879 2.495-6.072-0.901-11.761-3.532-16.384-7.578-112-96.92-206.879-49.96-316.841 4.48-113.918 56.48-243.078 120.36-387.158-4.48zM832 303.037c-107.162-84.639-199.48-38.963-305.802 13.64-99.998 49.398-211.238 104.52-334.198 33.597v402.601c107.16 84.64 199.48 39 305.8-13.6 100.001-49.4 211.279-104.52 334.2-33.6v-402.639z" />
<glyph unicode="&#xe919;" glyph-name="link-3" d="M662.651 598.624c2.975-2.972 5.335-6.501 6.948-10.386 1.608-3.885 2.437-8.049 2.437-12.254s-0.829-8.369-2.437-12.254c-1.613-3.885-3.973-7.414-6.948-10.386l-255.999-256c-2.973-2.975-6.503-5.33-10.387-6.943-3.885-1.608-8.048-2.437-12.253-2.437s-8.368 0.829-12.253 2.437c-3.885 1.613-7.414 3.968-10.387 6.943s-5.331 6.502-6.94 10.388c-1.609 3.881-2.437 8.049-2.437 12.252s0.828 8.366 2.437 12.252c1.609 3.886 3.967 7.414 6.94 10.388l255.998 255.998c2.975 2.975 6.502 5.336 10.388 6.946s8.049 2.439 12.252 2.439c4.209 0 8.371-0.829 12.257-2.439 3.881-1.611 7.414-3.971 10.383-6.946zM862.413 798.384c-20.803 20.803-45.496 37.305-72.673 48.563-27.182 11.258-56.31 17.053-85.729 17.053-29.414 0-58.547-5.795-85.724-17.053-27.182-11.258-51.876-27.76-72.673-48.563l-120.242-120.2c-6.004-6.005-9.377-14.149-9.377-22.64s3.373-16.635 9.377-22.64c6.005-6.004 14.149-9.378 22.64-9.378s16.635 3.374 22.64 9.378l120.238 120c30.116 29.454 70.636 45.843 112.758 45.612s82.458-17.066 112.246-46.851c29.788-29.784 46.633-70.114 46.868-112.238 0.241-42.124-16.143-82.642-45.588-112.763l-120.279-120.238c-6.006-6.001-9.38-14.141-9.385-22.625-0.005-8.489 3.364-16.63 9.364-22.636 5.996-6.006 14.136-9.38 22.625-9.385s16.63 3.364 22.636 9.364l120.279 120.44c20.803 20.801 37.304 45.495 48.563 72.673s17.050 56.308 17.050 85.726c0 29.418-5.791 58.548-17.050 85.727s-27.761 51.873-48.563 72.673zM553.37 263.101l-120.238-120.238c-14.797-15.13-32.448-27.172-51.932-35.43-19.483-8.264-40.412-12.575-61.574-12.692s-42.137 3.968-61.71 12.012c-19.573 8.044-37.356 19.891-52.318 34.857s-26.808 32.753-34.85 52.326c-8.042 19.574-12.121 40.55-12.001 61.711s4.438 42.092 12.702 61.573c8.264 19.482 20.311 37.13 35.442 51.922l120.2 120.202c6.005 6.004 9.378 14.148 9.378 22.64s-3.373 16.636-9.378 22.64c-6.004 6.005-14.148 9.378-22.64 9.378s-16.636-3.373-22.64-9.378l-120.2-120.242c-42.010-42.010-65.611-98.985-65.611-158.397s23.601-116.393 65.611-158.403c42.011-42.010 98.989-65.608 158.4-65.608s116.39 23.598 158.4 65.608l120.24 120.284c6.001 6.001 9.37 14.141 9.364 22.63s-3.379 16.63-9.385 22.625c-6.006 6.001-14.147 9.37-22.636 9.364-8.484-0.005-16.625-3.379-22.625-9.385z" />
<glyph unicode="&#xe91a;" d="M992 448c0-40.96-50.319-74.721-60.401-112.481-10.399-39.040 15.923-93.44-3.84-127.601-20.081-34.719-80.481-38.876-108.641-67.036s-32.317-88.561-67.036-108.641c-34.161-19.763-88.561 6.559-127.601-3.84-37.76-10.081-71.521-60.401-112.481-60.401s-74.72 50.319-112.48 60.401c-39.040 10.399-93.439-15.923-127.6 3.84-34.72 20.081-38.88 80.481-67.040 108.641s-88.56 32.317-108.64 67.036c-19.76 34.161 6.56 88.561-3.84 127.601-10.080 37.76-60.4 71.521-60.4 112.481s50.32 74.72 60.4 112.48c10.4 39.040-15.92 93.439 3.84 127.6 20.080 34.72 80.48 38.88 108.64 67.040s32.32 88.56 67.040 108.64c34.16 19.76 88.56-6.56 127.6 3.84 37.76 10.080 71.52 60.4 112.48 60.4s74.721-50.32 112.481-60.4c39.040-10.4 93.44 15.92 127.601-3.84 34.719-20.080 38.876-80.48 67.036-108.64s88.561-32.32 108.641-67.040c19.763-34.16-6.559-88.56 3.84-127.6 10.081-37.76 60.401-71.52 60.401-112.48z" />
<glyph unicode="&#xe91b;" d="M650.742 591.081l-182.723-182.72-94.72 94.64c-9.879 9.873-23.273 15.419-37.24 15.419s-27.362-5.546-37.24-15.419c-9.873-9.879-15.419-23.273-15.419-37.24s5.546-27.361 15.419-37.237l132.88-132.884c9.615-9.6 22.649-14.996 36.24-14.996s26.625 5.396 36.24 14.996l220.961 220.962c9.871 9.879 15.416 23.273 15.416 37.24s-5.545 27.361-15.416 37.24c-4.884 4.888-10.685 8.766-17.065 11.411-6.385 2.646-13.225 4.007-20.137 4.007-6.907 0-13.752-1.361-20.132-4.007-6.385-2.646-12.186-6.523-17.065-11.411z" />
<glyph unicode="&#xe91c;" glyph-name="two-arrow" d="M854.667 233.342l-128.001-128.001c-6.005-6.005-14.149-9.377-22.641-9.377s-16.635 3.372-22.64 9.377c-6.004 6.005-9.378 14.153-9.378 22.645s3.373 16.633 9.378 22.638l73.398 73.362h-562.758c-8.487 0-16.626 3.365-22.627 9.37-6.001 6.001-9.373 14.14-9.373 22.627s3.372 16.626 9.373 22.627c6.001 6.001 14.14 9.373 22.627 9.373h562.758l-73.398 73.36c-6.004 6.004-9.378 14.148-9.378 22.64s3.373 16.636 9.378 22.64c6.005 6.004 14.149 9.378 22.64 9.378s16.636-3.373 22.641-9.378l128.001-128c2.977-2.972 5.332-6.501 6.941-10.386 1.616-3.885 2.443-8.049 2.443-12.254s-0.827-8.37-2.443-12.254c-1.609-3.885-3.964-7.414-6.941-10.386zM297.385 489.343c6.005-6.005 14.149-9.378 22.64-9.378s16.636 3.373 22.641 9.378c6.004 6.004 9.378 14.148 9.378 22.64s-3.373 16.636-9.378 22.64l-73.4 73.36h562.757c8.492 0 16.633 3.371 22.63 9.373 6.005 6.001 9.37 14.14 9.37 22.627s-3.365 16.626-9.37 22.627c-5.998 6.001-14.139 9.373-22.63 9.373h-562.757l73.4 73.36c6.004 6.004 9.378 14.148 9.378 22.64s-3.373 16.636-9.378 22.64c-6.005 6.004-14.149 9.378-22.641 9.378s-16.635-3.373-22.64-9.378l-128-128c-2.975-2.972-5.335-6.502-6.946-10.386s-2.439-8.049-2.439-12.254c0-4.206 0.829-8.37 2.439-12.254s3.971-7.414 6.946-10.386l128-128z" />
<glyph unicode="&#xe91d;" glyph-name="sale" d="M384 96c0-12.661-3.754-25.029-10.786-35.555s-17.028-18.732-28.722-23.574c-11.695-4.842-24.563-6.107-36.977-3.643-12.415 2.472-23.819 8.565-32.769 17.518s-15.046 20.356-17.516 32.768c-2.469 12.412-1.202 25.285 3.643 36.974 4.844 11.696 13.046 21.694 23.572 28.723 10.525 7.036 22.898 10.789 35.556 10.789 16.974 0 33.252-6.744 45.255-18.747s18.745-28.277 18.745-45.253zM736 160c-12.658 0-25.032-3.752-35.556-10.789-10.525-7.029-18.728-17.028-23.572-28.723-4.844-11.688-6.112-24.561-3.643-36.974s8.565-23.815 17.516-32.768c8.95-8.953 20.354-15.045 32.769-17.518 12.412-2.465 25.285-1.2 36.974 3.643 11.696 4.842 21.694 13.049 28.723 23.574 7.036 10.525 10.789 22.894 10.789 35.555 0 16.976-6.744 33.251-18.747 45.253s-28.277 18.747-45.253 18.747zM926.603 662.6l-114.125-370.839c-5.976-19.659-18.132-36.867-34.662-49.073-16.523-12.206-36.549-18.76-57.096-18.687h-384.44c-20.841 0.080-41.096 6.905-57.732 19.46s-28.757 30.16-34.548 50.18l-144.72 506.36h-67.28c-8.487 0-16.626 3.371-22.627 9.373s-9.373 14.141-9.373 22.627c0 8.487 3.371 16.626 9.373 22.627s14.14 9.373 22.627 9.373h67.28c13.896-0.046 27.404-4.591 38.502-12.956s19.187-20.098 23.058-33.444l32.44-113.6h702.72c5.010 0.002 9.947-1.172 14.416-3.426s8.353-5.527 11.33-9.553c2.977-4.027 4.966-8.697 5.808-13.633s0.519-10.001-0.951-14.788zM852.677 640h-641.118l93.96-328.8c1.912-6.684 5.947-12.562 11.497-16.748s12.311-6.45 19.263-6.452h384.44c6.848-0.002 13.518 2.191 19.025 6.26s9.567 9.795 11.579 16.34l101.354 329.4z" />
<glyph unicode="&#xe91e;" glyph-name="clock" horiz-adv-x="970" d="M485.053 781.474c-71.951 0-142.285-21.336-202.111-61.31s-106.452-96.79-133.987-163.264c-27.535-66.474-34.739-139.62-20.702-210.19 14.037-70.564 48.685-135.389 99.561-186.266s115.698-85.52 186.266-99.56c70.569-14.040 143.714-6.834 210.187 20.701s123.29 74.165 163.263 133.988c39.974 59.823 61.311 130.161 61.311 202.111-0.108 96.449-38.475 188.916-106.674 257.116s-160.666 106.563-257.116 106.673zM485.053 114.526c-59.959 0-118.571 17.78-168.425 51.092s-88.711 80.659-111.656 136.052c-22.945 55.393-28.949 116.348-17.251 175.157 11.697 58.807 40.57 112.825 82.968 155.222s96.415 71.27 155.222 82.968c58.807 11.697 119.764 5.694 175.157-17.252s102.74-61.802 136.052-111.656c33.312-49.854 51.092-108.466 51.092-168.425-0.092-80.373-32.057-157.432-88.894-214.264-56.832-56.837-133.891-88.802-214.264-88.894zM658.082 590.712c2.819-2.815 5.055-6.159 6.581-9.84s2.307-7.625 2.307-11.609c0-3.984-0.781-7.929-2.307-11.609s-3.762-7.024-6.581-9.84l-151.581-151.581c-2.817-2.813-6.16-5.050-9.841-6.575s-7.624-2.307-11.608-2.307c-3.983 0-7.927 0.781-11.608 2.307s-7.024 3.762-9.841 6.575c-2.817 2.819-5.050 6.16-6.575 9.841s-2.309 7.626-2.309 11.609c0 3.983 0.785 7.928 2.309 11.608s3.759 7.024 6.575 9.841l151.577 151.579c2.819 2.819 6.16 5.055 9.841 6.58s7.626 2.311 11.609 2.311c3.983 0 7.928-0.785 11.609-2.311s7.022-3.761 9.841-6.58zM363.789 872.421c0 8.040 3.194 15.751 8.88 21.437s13.396 8.879 21.436 8.879h181.895c8.041 0 15.753-3.194 21.439-8.879 5.681-5.685 8.876-13.397 8.876-21.437s-3.196-15.751-8.876-21.437c-5.686-5.685-13.398-8.879-21.439-8.879h-181.895c-8.040 0-15.751 3.194-21.436 8.879s-8.88 13.397-8.88 21.437z" />
<glyph unicode="&#xe91f;" glyph-name="description" horiz-adv-x="970" d="M333.474 387.368v60.632c0 8.040 3.194 15.751 8.879 21.437s13.397 8.879 21.437 8.879c8.040 0 15.751-3.194 21.437-8.879s8.879-13.397 8.879-21.437v-60.632c0-8.041-3.194-15.753-8.879-21.434-5.685-5.686-13.397-8.882-21.437-8.882s-15.751 3.196-21.437 8.882c-5.685 5.681-8.879 13.393-8.879 21.434zM485.053 357.053c8.040 0 15.751 3.196 21.437 8.882 5.685 5.681 8.879 13.393 8.879 21.434v90.947c0 8.040-3.194 15.751-8.879 21.437s-13.397 8.879-21.437 8.879c-8.040 0-15.751-3.194-21.437-8.879s-8.879-13.397-8.879-21.437v-90.947c0-8.041 3.194-15.753 8.879-21.434 5.685-5.686 13.397-8.882 21.437-8.882zM606.316 357.053c8.041 0 15.753 3.196 21.434 8.882 5.686 5.681 8.882 13.393 8.882 21.434v121.263c0 8.040-3.196 15.751-8.882 21.437-5.681 5.685-13.393 8.879-21.434 8.879s-15.753-3.194-21.434-8.879c-5.686-5.685-8.882-13.397-8.882-21.437v-121.263c0-8.041 3.196-15.753 8.882-21.434 5.681-5.686 13.393-8.882 21.434-8.882zM818.526 629.895v-363.789h30.316c8.041 0 15.753-3.196 21.434-8.882 5.686-5.681 8.882-13.393 8.882-21.434s-3.196-15.753-8.882-21.434c-5.681-5.686-13.393-8.882-21.434-8.882h-333.474v-65.859c20.227-7.152 37.274-21.224 48.128-39.731 10.86-18.502 14.821-40.249 11.194-61.397-3.627-21.143-14.616-40.324-31.016-54.153-16.404-13.829-37.167-21.412-58.621-21.412s-42.217 7.583-58.62 21.412c-16.403 13.829-27.389 33.011-31.017 54.153-3.628 21.148 0.336 42.895 11.192 61.397 10.855 18.507 27.903 32.579 48.13 39.731v65.859h-333.474c-8.040 0-15.751 3.196-21.437 8.882-5.685 5.681-8.879 13.393-8.879 21.434s3.194 15.753 8.879 21.434c5.685 5.686 13.397 8.882 21.437 8.882h30.316v363.789c-16.081 0-31.503 6.388-42.873 17.758s-17.758 26.793-17.758 42.873v60.632c0 16.081 6.388 31.503 17.758 42.873s26.793 17.758 42.873 17.758h666.947c16.082 0 31.501-6.388 42.873-17.758s17.758-26.793 17.758-42.873v-60.632c0-16.081-6.387-31.503-17.758-42.873s-26.791-17.758-42.873-17.758zM515.368 53.895c0 5.998-1.778 11.857-5.109 16.842s-8.066 8.871-13.605 11.167c-5.539 2.296-11.635 2.894-17.516 1.725s-11.282-4.058-15.522-8.3c-4.239-4.236-7.127-9.636-8.297-15.522-1.17-5.88-0.57-11.975 1.725-17.516 2.294-5.535 6.18-10.272 11.165-13.603s10.847-5.109 16.843-5.109c8.040 0 15.751 3.196 21.437 8.882 5.685 5.681 8.879 13.393 8.879 21.434zM151.579 690.526h666.947v60.632h-666.947v-60.632zM757.895 629.895h-545.684v-363.789h545.684v363.789z" />
<glyph unicode="&#xe920;" glyph-name="show" horiz-adv-x="970" d="M937.176 460.278c-1.326 2.994-33.426 74.198-104.782 145.554-95.076 95.078-215.164 145.326-347.341 145.326s-252.265-50.248-347.343-145.326c-71.356-71.356-103.604-142.674-104.779-145.554-1.724-3.877-2.614-8.073-2.614-12.315s0.891-8.439 2.614-12.316c1.326-2.994 33.423-74.158 104.779-145.515 95.078-95.043 215.166-145.289 347.343-145.289s252.266 50.246 347.341 145.289c71.357 71.357 103.456 142.521 104.782 145.515 1.725 3.877 2.614 8.073 2.614 12.316s-0.889 8.438-2.614 12.315zM485.052 205.474c-116.64 0-218.539 42.404-302.892 126.001-34.612 34.417-64.058 73.669-87.423 116.526 23.359 42.861 52.806 82.111 87.423 116.526 84.353 83.596 186.253 126 302.892 126s218.538-42.404 302.894-126c34.676-34.407 64.189-73.657 87.611-116.526-27.325-51.006-146.351-242.526-390.506-242.526zM485.052 629.895c-35.975 0-71.143-10.668-101.055-30.655s-53.226-48.395-66.993-81.632c-13.767-33.237-17.369-69.81-10.351-105.093 7.019-35.285 24.343-67.697 49.781-93.135s57.849-42.76 93.133-49.783c35.284-7.017 71.857-3.412 105.097 10.353 33.237 13.77 61.645 37.080 81.629 66.997 19.99 29.912 30.655 65.078 30.655 101.053-0.049 48.226-19.23 94.462-53.329 128.564-34.105 34.101-80.34 53.281-128.566 53.331zM485.052 326.737c-23.983 0-47.428 7.114-67.37 20.437s-35.484 32.261-44.662 54.423c-9.178 22.156-11.58 46.538-6.901 70.060s16.228 45.13 33.187 62.089c16.959 16.959 38.566 28.508 62.089 33.187s47.905 2.278 70.063-6.901c22.16-9.178 41.099-24.721 54.421-44.663s20.437-43.386 20.437-67.37c0-32.159-12.778-63.003-35.517-85.747-22.744-22.738-53.586-35.517-85.747-35.517z" />
<glyph unicode="&#xe921;" glyph-name="link-2" horiz-adv-x="970" d="M651.792 645.053c0 32.977-9.782 65.214-28.101 92.634-18.324 27.42-44.366 48.791-74.833 61.411s-63.991 15.922-96.335 9.488-62.053-22.313-85.372-45.632c-23.319-23.319-39.199-53.028-45.632-85.372s-3.132-65.869 9.488-96.336c12.62-30.467 33.991-56.508 61.411-74.829s59.657-28.1 92.634-28.1c44.206 0.050 86.587 17.633 117.846 48.891s48.839 73.64 48.893 117.846zM485.053 538.947c-20.986 0-41.5 6.223-58.949 17.882s-31.049 28.231-39.080 47.619c-8.031 19.388-10.132 40.722-6.038 61.305s14.2 39.489 29.039 54.328c14.839 14.839 33.745 24.945 54.328 29.039s41.917 1.993 61.305-6.038c19.391-8.031 35.958-21.631 47.621-39.080 11.657-17.449 17.882-37.963 17.882-58.949 0-28.141-11.183-55.129-31.081-75.028s-46.886-31.077-75.027-31.077zM712.424 448c-32.978 0-65.218-9.779-92.634-28.101-27.422-18.319-48.791-44.361-61.413-74.827s-15.921-63.995-9.491-96.337c6.435-32.342 22.318-62.054 45.633-85.375 23.32-23.315 53.032-39.198 85.375-45.633 32.342-6.43 65.87-3.131 96.337 9.491s56.509 33.991 74.827 61.413c18.324 27.416 28.101 59.656 28.101 92.629-0.049 44.21-17.634 86.587-48.893 117.846s-73.636 48.843-117.841 48.893zM712.424 175.158c-20.987 0-41.504 6.225-58.95 17.882-17.451 11.657-31.049 28.23-39.079 47.616-8.030 19.391-10.132 40.723-6.042 61.305 4.096 20.582 14.201 39.489 29.038 54.331 14.843 14.837 33.749 24.942 54.331 29.038 20.582 4.091 41.914 1.989 61.305-6.042 19.386-8.030 35.959-21.628 47.616-39.079 11.657-17.446 17.882-37.963 17.882-58.95 0-28.138-11.178-55.129-31.076-75.027s-46.888-31.076-75.027-31.076zM257.684 448c-32.977 0-65.214-9.779-92.634-28.101-27.42-18.319-48.791-44.361-61.411-74.827s-15.922-63.995-9.488-96.337c6.433-32.342 22.313-62.054 45.632-85.375 23.319-23.315 53.028-39.198 85.372-45.633 32.344-6.43 65.869-3.131 96.336 9.491s56.508 33.991 74.829 61.413c18.322 27.416 28.1 59.656 28.1 92.629-0.050 44.21-17.633 86.587-48.891 117.846s-73.64 48.843-117.846 48.893zM257.684 175.158c-20.986 0-41.5 6.225-58.949 17.882s-31.049 28.23-39.080 47.616c-8.031 19.391-10.132 40.723-6.038 61.305s14.2 39.489 29.039 54.331c14.839 14.837 33.745 24.942 54.328 29.038 20.582 4.091 41.917 1.989 61.305-6.042s35.96-21.628 47.619-39.079c11.659-17.446 17.882-37.963 17.882-58.95 0-28.138-11.179-55.129-31.077-75.027s-46.887-31.076-75.028-31.076z" />
<glyph unicode="&#xe922;" glyph-name="link-1" d="M703.966 320.038c-21.346 0.009-42.475-4.271-62.14-12.578-19.665-8.303-37.461-20.471-52.339-35.78l-184.399 118.519c14.505 37.197 14.505 78.481 0 115.678l184.399 118.521c27.699-28.373 64.947-45.45 104.521-47.921s78.656 9.84 109.666 34.547c31.014 24.707 51.746 60.049 58.185 99.174 6.434 39.125-1.89 79.247-23.351 112.585-21.466 33.338-54.545 57.519-92.83 67.853-38.281 10.334-79.031 6.086-114.359-11.921s-62.707-48.489-76.838-85.537c-14.127-37.048-13.995-78.023 0.367-114.98l-184.398-118.52c-22.205 22.797-50.704 38.454-81.854 44.97s-63.535 3.595-93.016-8.39c-29.481-11.985-54.719-32.489-72.486-58.892s-27.258-57.503-27.258-89.328c0-31.825 9.49-62.925 27.258-89.327s43.005-46.908 72.486-58.893c29.481-11.985 61.866-14.908 93.016-8.388 31.15 6.515 59.649 22.17 81.854 44.966l184.398-118.519c-12.352-31.859-14.178-66.837-5.214-99.814s28.25-62.212 55.036-83.435c26.786-21.222 59.661-33.31 93.811-34.492 34.15-1.186 67.785 8.593 95.979 27.908 28.19 19.311 49.455 47.142 60.685 79.42 11.23 32.273 11.831 67.294 1.715 99.934s-30.417 61.188-57.929 81.455c-27.511 20.271-60.787 31.198-94.963 31.185zM703.966 832.038c18.991 0 37.551-5.63 53.338-16.179s28.092-25.542 35.358-43.084c7.266-17.542 9.165-36.844 5.461-55.466s-12.847-35.728-26.274-49.154c-13.423-13.426-30.528-22.569-49.152-26.273s-37.926-1.803-55.467 5.463c-17.54 7.266-32.533 19.571-43.085 35.358-10.547 15.787-16.179 34.348-16.179 53.335 0 25.461 10.116 49.879 28.122 67.882 18.001 18.004 42.419 28.118 67.878 28.118zM255.968 352.038c-18.987 0-37.548 5.632-53.335 16.179s-28.092 25.54-35.358 43.085c-7.266 17.54-9.167 36.843-5.463 55.467 3.704 18.62 12.847 35.725 26.273 49.152s30.531 22.569 49.154 26.273c18.622 3.704 37.924 1.803 55.466-5.463s32.535-19.572 43.084-35.359 16.179-34.347 16.179-53.333c0-25.459-10.114-49.877-28.118-67.883-18.004-18.001-42.421-28.117-67.882-28.117zM703.966 64.038c-18.987 0-37.547 5.632-53.333 16.179s-28.092 25.54-35.358 43.085c-7.266 17.54-9.165 36.843-5.461 55.467 3.703 18.62 12.847 35.725 26.274 49.152 13.423 13.427 30.528 22.571 49.152 26.274s37.926 1.801 55.467-5.466c17.54-7.266 32.533-19.571 43.085-35.358 10.547-15.787 16.175-34.347 16.175-53.333 0-25.459-10.112-49.877-28.117-67.883-18.001-18.001-42.419-28.117-67.883-28.117z" />
<glyph unicode="&#xe923;" glyph-name="content" d="M512 576c-25.314 0-50.065-7.507-71.113-21.572-21.050-14.065-37.456-34.057-47.144-57.443-9.688-23.39-12.223-49.126-7.284-73.958 4.939-24.828 17.129-47.637 35.031-65.536 17.9-17.903 40.709-30.093 65.537-35.034 24.832-4.937 50.569-2.402 73.958 7.287 23.386 9.685 43.379 26.091 57.442 47.142 14.067 21.047 21.572 45.798 21.572 71.113 0 33.946-13.487 66.505-37.491 90.51s-56.559 37.49-90.509 37.49zM512 384c-12.659 0-25.033 3.755-35.558 10.786-10.522 7.031-18.726 17.028-23.569 28.723s-6.114 24.563-3.644 36.975c2.47 12.416 8.567 23.821 17.515 32.772 8.951 8.947 20.356 15.044 32.772 17.515 12.412 2.47 25.28 1.203 36.975-3.644 11.695-4.843 21.692-13.047 28.723-23.569 7.031-10.526 10.786-22.899 10.786-35.558 0-16.973-6.741-33.254-18.743-45.257s-28.284-18.743-45.257-18.743zM192 576c-25.316 0-50.063-7.507-71.113-21.572s-37.455-34.057-47.144-57.443c-9.688-23.39-12.223-49.126-7.284-73.958 4.939-24.828 17.129-47.637 35.031-65.536 17.901-17.903 40.709-30.093 65.538-35.034 24.829-4.937 50.566-2.402 73.955 7.287 23.389 9.685 43.38 26.091 57.445 47.142 14.065 21.047 21.572 45.798 21.572 71.113 0 33.946-13.486 66.505-37.49 90.51s-56.562 37.49-90.51 37.49zM192 384c-12.658 0-25.032 3.755-35.556 10.786s-18.728 17.028-23.572 28.723c-4.844 11.695-6.111 24.563-3.642 36.975 2.47 12.416 8.565 23.821 17.516 32.772 8.951 8.947 20.354 15.044 32.769 17.515s25.283 1.203 36.977-3.644c11.695-4.843 21.69-13.047 28.722-23.569 7.032-10.526 10.786-22.899 10.786-35.558 0-16.973-6.743-33.254-18.745-45.257s-28.281-18.743-45.255-18.743zM832 576c-25.314 0-50.065-7.507-71.113-21.572-21.052-14.065-37.457-34.057-47.142-57.443-9.69-23.39-12.224-49.126-7.287-73.958 4.941-24.828 17.131-47.637 35.034-65.536 17.899-17.903 40.708-30.093 65.536-35.034 24.832-4.937 50.569-2.402 73.958 7.287 23.386 9.685 43.379 26.091 57.442 47.142 14.067 21.047 21.572 45.798 21.572 71.113 0 33.946-13.487 66.505-37.491 90.51s-56.559 37.49-90.509 37.49zM832 384c-12.659 0-25.033 3.755-35.558 10.786-10.522 7.031-18.726 17.028-23.569 28.723s-6.114 24.563-3.644 36.975c2.47 12.416 8.567 23.821 17.515 32.772 8.951 8.947 20.356 15.044 32.772 17.515 12.412 2.47 25.28 1.203 36.975-3.644 11.695-4.843 21.692-13.047 28.723-23.569 7.031-10.526 10.786-22.899 10.786-35.558 0-16.973-6.741-33.254-18.743-45.257s-28.284-18.743-45.257-18.743z" />
<glyph unicode="&#xe924;" glyph-name="picture" d="M64 704c0 25.461 10.114 49.878 28.118 67.882s42.421 28.118 67.882 28.118h704c25.463 0 49.88-10.114 67.88-28.118 18.005-18.004 28.12-42.421 28.12-67.882v-512c0-25.463-10.115-49.88-28.12-67.88-18-18.005-42.416-28.12-67.88-28.12h-704c-25.461 0-49.879 10.115-67.882 28.12-18.004 18-28.118 42.416-28.118 67.88v512zM128 274.773v-82.773c0-17.664 14.336-32 32-32h704c8.488 0 16.629 3.374 22.625 9.375 6.002 5.996 9.375 14.137 9.375 22.625v82.773l-114.773 114.728c-11.998 11.988-28.268 18.72-45.227 18.72s-33.229-6.732-45.227-18.72l-37.547-37.501 41.387-41.387c3.146-2.93 5.666-6.463 7.413-10.388 1.752-3.925 2.691-8.164 2.765-12.459 0.080-4.295-0.711-8.567-2.321-12.55s-4.005-7.606-7.043-10.644c-3.038-3.038-6.662-5.433-10.644-7.043s-8.255-2.401-12.55-2.321c-4.295 0.074-8.533 1.013-12.459 2.765-3.925 1.746-7.458 4.267-10.388 7.413l-220.16 220.117c-12 11.985-28.266 18.717-45.227 18.717s-33.227-6.732-45.227-18.717l-210.773-210.731zM560 608c0 12.731 5.057 24.94 14.060 33.941 9 9.002 21.208 14.059 33.94 14.059s24.94-5.057 33.94-14.059c9.006-9.002 14.057-21.21 14.057-33.941s-5.052-24.94-14.057-33.941c-9-9.002-21.208-14.059-33.94-14.059s-24.94 5.057-33.94 14.059c-9.003 9.002-14.060 21.21-14.060 33.941z" />
<glyph unicode="&#xe927;" glyph-name="create" d="M619.789 933.053h-431.158c-42.842-0.128-83.893-17.204-114.187-47.498s-47.369-71.345-47.497-114.187v-431.158c0.128-42.841 17.204-83.893 47.497-114.187s71.345-47.368 114.187-47.497h431.158c42.841 0.129 83.893 17.203 114.187 47.497s47.368 71.346 47.497 114.187v431.158c-0.129 42.842-17.203 83.893-47.497 114.187s-71.346 47.37-114.187 47.498zM512 501.895h-53.895v-53.895c0-14.294-5.678-28.002-15.785-38.11s-23.816-15.785-38.11-15.785c-14.294 0-28.002 5.678-38.11 15.785s-15.785 23.816-15.785 38.11v53.895h-53.895c-14.294 0-28.002 5.678-38.11 15.785s-15.785 23.816-15.785 38.11c0 14.294 5.678 28.002 15.785 38.11s23.816 15.785 38.11 15.785h53.895v53.895c0 14.294 5.678 28.002 15.785 38.11s23.816 15.785 38.11 15.785c14.294 0 28.002-5.678 38.11-15.785s15.785-23.816 15.785-38.11v-53.895h53.895c14.294 0 28.004-5.678 38.109-15.785s15.786-23.816 15.786-38.11c0-14.294-5.681-28.002-15.786-38.11s-23.815-15.785-38.109-15.785zM727.579-37.053h-485.053c-14.294 0-28.002 5.681-38.11 15.786s-15.785 23.816-15.785 38.109c0 14.293 5.678 28.004 15.785 38.109s23.816 15.786 38.11 15.786h485.053c42.879 0 84.006 17.036 114.327 47.357s47.357 71.448 47.357 114.327v485.053c0 14.294 5.681 28.002 15.786 38.11s23.816 15.785 38.109 15.785c14.293 0 28.004-5.678 38.109-15.785s15.786-23.816 15.786-38.11v-485.053c-0.086-71.443-28.505-139.932-79.020-190.453-50.521-50.516-119.010-78.934-190.453-79.020z" />
<glyph unicode="&#xe92a;" glyph-name="comment" d="M352 544c0 8.487 3.372 16.627 9.373 22.627s14.14 9.373 22.627 9.373h256c8.486 0 16.627-3.372 22.63-9.373 5.997-6.001 9.37-14.14 9.37-22.627s-3.373-16.627-9.37-22.627c-6.003-6.001-14.144-9.373-22.63-9.373h-256c-8.487 0-16.627 3.372-22.627 9.373s-9.373 14.14-9.373 22.627zM384 384h256c8.486 0 16.627 3.372 22.63 9.373 5.997 6.001 9.37 14.14 9.37 22.627s-3.373 16.627-9.37 22.627c-6.003 6.001-14.144 9.373-22.63 9.373h-256c-8.487 0-16.627-3.372-22.627-9.373s-9.373-14.14-9.373-22.627c0-8.487 3.372-16.627 9.373-22.627s14.14-9.373 22.627-9.373zM928 736v-512c0-16.973-6.746-33.254-18.746-45.254s-28.282-18.746-45.254-18.746h-237.88l-59.359-97.158c-5.714-9.44-13.77-17.242-23.388-22.643-9.617-5.408-20.468-8.237-31.501-8.211s-21.871 2.899-31.464 8.346c-9.593 5.446-17.615 13.286-23.288 22.746l-59.24 96.922h-237.88c-16.974 0-33.252 6.746-45.255 18.746s-18.745 28.282-18.745 45.254v512c0 16.974 6.743 33.252 18.745 45.255s28.281 18.745 45.255 18.745h704c16.973 0 33.254-6.743 45.254-18.745s18.746-28.281 18.746-45.255zM864 736h-704v-512h237.88c11.018-0.032 21.843-2.886 31.439-8.301s17.64-13.203 23.361-22.618l59.32-97.082 59.28 97.28c5.747 9.389 13.807 17.139 23.409 22.522 9.603 5.376 20.425 8.198 31.431 8.198h237.88v512z" />
<glyph unicode="&#xe92b;" glyph-name="file-1" d="M854.643 694.64l-160 160c-2.976 2.971-6.509 5.326-10.394 6.932s-8.045 2.431-12.25 2.428h-320c-16.974 0-33.252-6.743-45.255-18.745s-18.745-28.281-18.745-45.255v-64h-64c-16.974 0-33.252-6.743-45.255-18.745s-18.745-28.281-18.745-45.255v-576c0-16.973 6.743-33.254 18.745-45.254s28.281-18.746 45.255-18.746h448c16.973 0 33.254 6.746 45.254 18.746s18.746 28.282 18.746 45.254v64h64c16.973 0 33.254 6.746 45.254 18.746s18.746 28.282 18.746 45.254v448c0.006 4.204-0.819 8.367-2.426 12.251s-3.962 7.415-6.931 10.389zM672 96h-448v576h306.76l141.24-141.24v-338.12c0-0.237 0-0.442 0-0.64s0-0.403 0-0.64v-95.36zM800 224h-64v320c0.006 4.204-0.819 8.367-2.426 12.251s-3.962 7.415-6.931 10.389l-160.003 160c-2.974 2.971-6.504 5.326-10.388 6.932s-8.048 2.431-12.252 2.428h-192v64h306.758l141.242-141.24v-434.76zM576 352c0-8.487-3.372-16.627-9.373-22.627s-14.14-9.373-22.627-9.373h-192c-8.487 0-16.627 3.372-22.627 9.373s-9.373 14.14-9.373 22.627c0 8.487 3.372 16.627 9.373 22.627s14.14 9.373 22.627 9.373h192c8.487 0 16.627-3.372 22.627-9.373s9.373-14.14 9.373-22.627zM576 224c0-8.486-3.372-16.627-9.373-22.63-6.001-5.997-14.14-9.37-22.627-9.37h-192c-8.487 0-16.627 3.373-22.627 9.37-6.001 6.003-9.373 14.144-9.373 22.63s3.372 16.627 9.373 22.63c6.001 5.997 14.14 9.37 22.627 9.37h192c8.487 0 16.627-3.373 22.627-9.37 6.001-6.003 9.373-14.144 9.373-22.63z" />
<glyph unicode="&#xe92c;" glyph-name="vt" d="M866.862 773.549c-66.391 30.473-136.453 52.204-208.435 64.648-0.655 0.121-1.331 0.034-1.93-0.25s-1.096-0.751-1.418-1.334c-9.001-16.010-18.975-36.894-25.953-53.31-78.71 11.784-157.011 11.784-234.103 0-6.984 16.78-17.316 37.3-26.358 53.31-0.334 0.57-0.833 1.027-1.431 1.309s-1.267 0.378-1.919 0.275c-73.136-12.596-143.124-34.66-208.432-64.648-0.568-0.241-1.048-0.653-1.372-1.178-132.752-198.33-169.12-391.785-151.28-582.843 0.080-0.932 0.606-1.828 1.332-2.396 87.586-64.323 172.43-103.373 255.696-129.254 0.648-0.195 1.339-0.184 1.981 0.026s1.204 0.614 1.611 1.152c19.696 26.9 37.254 55.26 52.308 85.084 0.888 1.746 0.040 3.825-1.776 4.511-27.85 10.568-54.368 23.45-79.878 38.072-2.018 1.178-2.18 4.065-0.322 5.448 5.383 4.024 10.672 8.166 15.864 12.431 0.455 0.379 1.007 0.62 1.591 0.696 0.585 0.082 1.18-0.005 1.719-0.246 167.584-76.513 349.016-76.513 514.622 0 0.538 0.256 1.137 0.353 1.731 0.282s1.157-0.312 1.618-0.686c5.197-4.291 10.501-8.448 15.903-12.477 1.859-1.382 1.736-4.265-0.282-5.443-25.508-14.915-52.029-27.51-79.918-38.031-0.43-0.169-0.819-0.42-1.142-0.742-0.328-0.328-0.579-0.717-0.742-1.147s-0.236-0.891-0.21-1.347c0.026-0.461 0.148-0.906 0.358-1.316 15.38-29.783 32.937-58.148 52.27-85.048 0.809-1.137 2.258-1.623 3.594-1.219 83.666 25.882 168.509 64.932 256.097 129.254 0.379 0.276 0.691 0.63 0.922 1.034 0.23 0.41 0.369 0.86 0.41 1.321 21.356 220.887-35.763 412.754-151.398 582.844-0.282 0.552-0.753 0.984-1.326 1.218zM342.188 305.864c-50.454 0-92.028 46.321-92.028 103.209 0 56.884 40.766 103.206 92.028 103.206 51.662 0 92.834-46.728 92.026-103.206 0-56.888-40.768-103.209-92.026-103.209zM682.44 305.864c-50.447 0-92.022 46.321-92.022 103.209 0 56.884 40.765 103.206 92.022 103.206 51.666 0 92.836-46.728 92.032-103.206 0-56.888-40.366-103.209-92.032-103.209z" />
<glyph unicode="&#xe92d;" glyph-name="tiktok" d="M534.613 959.147c55.893 0.853 111.36 0.427 166.827 0.853 3.413-65.28 26.88-131.84 74.667-177.92 47.787-47.36 115.2-69.12 180.907-76.373v-171.947c-61.44 2.133-123.307 14.933-179.2 41.387-24.32 11.093-46.933 25.173-69.12 39.68-0.427-124.587 0.427-249.173-0.853-373.333-3.413-59.733-23.040-119.040-57.6-168.107-55.893-81.92-152.747-135.253-252.16-136.96-61.013-3.413-122.027 13.227-174.080 43.947-86.187 50.773-146.773 143.787-155.733 243.627-0.853 21.333-1.28 42.667-0.427 63.573 7.68 81.067 47.787 158.72 110.080 211.627 70.827 61.44 169.813 90.88 262.4 73.387 0.853-63.147-1.707-126.293-1.707-189.44-42.24 13.653-91.733 9.813-128.853-15.787-26.88-17.493-47.36-44.373-58.027-74.667-8.96-21.76-6.4-45.653-5.973-68.693 10.24-69.973 77.653-128.853 149.333-122.453 47.787 0.427 93.44 28.16 118.187 68.693 8.107 14.080 17.067 28.587 17.493 45.227 4.267 76.373 2.56 152.32 2.987 228.693 0.427 171.947-0.427 343.467 0.853 514.987z" />
<glyph unicode="&#xe92e;" glyph-name="loading-1" d="M544 832v-128c0-8.487-3.371-16.626-9.372-22.628s-14.141-9.372-22.628-9.372c-8.487 0-16.626 3.371-22.628 9.372s-9.372 14.141-9.372 22.628v128c0 8.487 3.371 16.626 9.372 22.628s14.141 9.372 22.628 9.372c8.487 0 16.626-3.371 22.628-9.372s9.372-14.141 9.372-22.628zM692.998 597c4.21 0.002 8.374 0.833 12.26 2.446s7.413 3.976 10.382 6.954l90.522 90.48c6.002 6.005 9.375 14.149 9.375 22.64s-3.374 16.635-9.375 22.64c-6.007 6.005-14.148 9.378-22.642 9.378s-16.634-3.374-22.642-9.378l-90.476-90.52c-4.477-4.473-7.532-10.173-8.767-16.381-1.24-6.207-0.609-12.641 1.809-18.49s6.519-10.849 11.782-14.368c5.257-3.519 11.446-5.399 17.772-5.402zM896 480h-128c-8.488 0-16.629-3.371-22.625-9.372-6.002-6.001-9.375-14.141-9.375-22.628s3.374-16.626 9.375-22.628c5.996-6.001 14.137-9.372 22.625-9.372h128c8.488 0 16.629 3.371 22.625 9.372 6.002 6.001 9.375 14.141 9.375 22.628s-3.374 16.626-9.375 22.628c-5.996 6.001-14.137 9.372-22.625 9.372zM715.639 289.599c-6.047 5.751-14.103 8.909-22.448 8.801s-16.316-3.47-22.221-9.37c-5.899-5.905-9.262-13.875-9.37-22.221s3.049-16.401 8.801-22.448l90.476-90.522c6.007-6.002 14.148-9.375 22.642-9.375s16.634 3.374 22.642 9.375c6.002 6.007 9.375 14.148 9.375 22.642s-3.374 16.634-9.375 22.642l-90.522 90.476zM512 224c-8.487 0-16.626-3.374-22.628-9.375-6.001-5.996-9.372-14.137-9.372-22.625v-128c0-8.488 3.371-16.629 9.372-22.625 6.001-6.002 14.141-9.375 22.628-9.375s16.626 3.374 22.628 9.375c6.001 5.996 9.372 14.137 9.372 22.625v128c0 8.488-3.371 16.629-9.372 22.625-6.001 6.002-14.141 9.375-22.628 9.375zM308.36 289.599l-90.52-90.476c-6.005-6.007-9.378-14.148-9.378-22.642s3.374-16.634 9.378-22.642c6.005-6.002 14.148-9.375 22.64-9.375s16.635 3.374 22.64 9.375l90.48 90.522c5.747 6.047 8.905 14.103 8.798 22.448s-3.469 16.316-9.37 22.221c-5.901 5.899-13.873 9.262-22.217 9.37s-16.4-3.049-22.451-8.801zM288 448c0 8.487-3.371 16.626-9.372 22.628s-14.141 9.372-22.628 9.372h-128c-8.487 0-16.626-3.371-22.628-9.372s-9.372-14.141-9.372-22.628c0-8.487 3.371-16.626 9.372-22.628s14.141-9.372 22.628-9.372h128c8.487 0 16.626 3.371 22.628 9.372s9.372 14.141 9.372 22.628zM263.12 742.16c-6.005 6.005-14.149 9.378-22.64 9.378s-16.635-3.374-22.64-9.378c-6.005-6.005-9.378-14.148-9.378-22.64s3.374-16.635 9.378-22.64l90.52-90.48c6.050-5.747 14.106-8.905 22.451-8.798s16.317 3.469 22.217 9.37c5.901 5.901 9.263 13.873 9.37 22.217s-3.050 16.4-8.798 22.451l-90.48 90.52z" />
<glyph unicode="&#xe92f;" glyph-name="star" horiz-adv-x="951" d="M950.857 581.143c0-10.286-7.429-20-14.857-27.429l-207.429-202.286 49.143-285.714c0.571-4 0.571-7.429 0.571-11.429 0-14.857-6.857-28.571-23.429-28.571-8 0-16 2.857-22.857 6.857l-256.571 134.857-256.571-134.857c-7.429-4-14.857-6.857-22.857-6.857-16.571 0-24 13.714-24 28.571 0 4 0.571 7.429 1.143 11.429l49.143 285.714-208 202.286c-6.857 7.429-14.286 17.143-14.286 27.429 0 17.143 17.714 24 32 26.286l286.857 41.714 128.571 260c5.143 10.857 14.857 23.429 28 23.429s22.857-12.571 28-23.429l128.571-260 286.857-41.714c13.714-2.286 32-9.143 32-26.286z" />
<glyph unicode="&#xea3a;" glyph-name="arrow-up2" d="M877.254 557.254l-320 320c-24.992 24.994-65.514 24.994-90.508 0l-320-320c-24.994-24.994-24.994-65.516 0-90.51 24.994-24.996 65.516-24.996 90.51 0l210.744 210.746v-613.49c0-35.346 28.654-64 64-64s64 28.654 64 64v613.49l210.746-210.746c12.496-12.496 28.876-18.744 45.254-18.744s32.758 6.248 45.254 18.746c24.994 24.994 24.994 65.514 0 90.508z" />
<glyph unicode="&#xea3b;" glyph-name="arrow-up-right2" d="M237.254 82.746l530.746 530.744v-229.49c0-35.346 28.654-64 64-64s64 28.654 64 64v384c0 25.884-15.594 49.222-39.508 59.126-7.924 3.284-16.242 4.84-24.492 4.838v0.036h-384c-35.346 0-64-28.654-64-64 0-35.348 28.654-64 64-64h229.49l-530.744-530.746c-12.498-12.496-18.746-28.876-18.746-45.254s6.248-32.758 18.746-45.254c24.992-24.994 65.516-24.994 90.508 0z" />
<glyph unicode="&#xea3c;" glyph-name="arrow-right2" d="M621.254 82.746l320 320c24.994 24.992 24.994 65.516 0 90.51l-320 320c-24.994 24.992-65.516 24.992-90.51 0-24.994-24.994-24.994-65.516 0-90.51l210.746-210.746h-613.49c-35.346 0-64-28.654-64-64s28.654-64 64-64h613.49l-210.746-210.746c-12.496-12.496-18.744-28.876-18.744-45.254s6.248-32.758 18.744-45.254c24.994-24.994 65.516-24.994 90.51 0z" />
<glyph unicode="&#xea3e;" glyph-name="arrow-down2" d="M877.254 338.746l-320-320c-24.992-24.994-65.514-24.994-90.508 0l-320 320c-24.994 24.994-24.994 65.516 0 90.51 24.994 24.996 65.516 24.996 90.51 0l210.744-210.746v613.49c0 35.346 28.654 64 64 64s64-28.654 64-64v-613.49l210.746 210.746c12.496 12.496 28.876 18.744 45.254 18.744s32.758-6.248 45.254-18.746c24.994-24.994 24.994-65.514 0-90.508z" />
<glyph unicode="&#xea40;" glyph-name="arrow-left2" d="M402.746 82.746l-320 320c-24.994 24.992-24.994 65.516 0 90.51l320 320c24.994 24.992 65.516 24.992 90.51 0 24.994-24.994 24.994-65.516 0-90.51l-210.746-210.746h613.49c35.346 0 64-28.654 64-64s-28.654-64-64-64h-613.49l210.746-210.746c12.496-12.496 18.744-28.876 18.744-45.254s-6.248-32.758-18.744-45.254c-24.994-24.994-65.516-24.994-90.51 0z" />
<glyph unicode="&#xea90;" glyph-name="facebook" d="M608 768h160v192h-160c-123.514 0-224-100.486-224-224v-96h-128v-192h128v-512h192v512h160l32 192h-192v96c0 17.346 14.654 32 32 32z" />
<glyph unicode="&#xea92;" glyph-name="instagram" d="M512 867.8c136.8 0 153-0.6 206.8-3 50-2.2 77-10.6 95-17.6 23.8-9.2 41-20.4 58.8-38.2 18-18 29-35 38.4-58.8 7-18 15.4-45.2 17.6-95 2.4-54 3-70.2 3-206.8s-0.6-153-3-206.8c-2.2-50-10.6-77-17.6-95-9.2-23.8-20.4-41-38.2-58.8-18-18-35-29-58.8-38.4-18-7-45.2-15.4-95-17.6-54-2.4-70.2-3-206.8-3s-153 0.6-206.8 3c-50 2.2-77 10.6-95 17.6-23.8 9.2-41 20.4-58.8 38.2-18 18-29 35-38.4 58.8-7 18-15.4 45.2-17.6 95-2.4 54-3 70.2-3 206.8s0.6 153 3 206.8c2.2 50 10.6 77 17.6 95 9.2 23.8 20.4 41 38.2 58.8 18 18 35 29 58.8 38.4 18 7 45.2 15.4 95 17.6 53.8 2.4 70 3 206.8 3zM512 960c-139 0-156.4-0.6-211-3-54.4-2.4-91.8-11.2-124.2-23.8-33.8-13.2-62.4-30.6-90.8-59.2-28.6-28.4-46-57-59.2-90.6-12.6-32.6-21.4-69.8-23.8-124.2-2.4-54.8-3-72.2-3-211.2s0.6-156.4 3-211c2.4-54.4 11.2-91.8 23.8-124.2 13.2-33.8 30.6-62.4 59.2-90.8 28.4-28.4 57-46 90.6-59 32.6-12.6 69.8-21.4 124.2-23.8 54.6-2.4 72-3 211-3s156.4 0.6 211 3c54.4 2.4 91.8 11.2 124.2 23.8 33.6 13 62.2 30.6 90.6 59s46 57 59 90.6c12.6 32.6 21.4 69.8 23.8 124.2 2.4 54.6 3 72 3 211s-0.6 156.4-3 211c-2.4 54.4-11.2 91.8-23.8 124.2-12.6 34-30 62.6-58.6 91-28.4 28.4-57 46-90.6 59-32.6 12.6-69.8 21.4-124.2 23.8-54.8 2.6-72.2 3.2-211.2 3.2v0zM512 711c-145.2 0-263-117.8-263-263s117.8-263 263-263 263 117.8 263 263c0 145.2-117.8 263-263 263zM512 277.4c-94.2 0-170.6 76.4-170.6 170.6s76.4 170.6 170.6 170.6c94.2 0 170.6-76.4 170.6-170.6s-76.4-170.6-170.6-170.6zM846.8 721.4c0-33.91-27.49-61.4-61.4-61.4s-61.4 27.49-61.4 61.4c0 33.91 27.49 61.4 61.4 61.4s61.4-27.49 61.4-61.4z" />
<glyph unicode="&#xea96;" glyph-name="twitter" d="M1024 733.6c-37.6-16.8-78.2-28-120.6-33 43.4 26 76.6 67.2 92.4 116.2-40.6-24-85.6-41.6-133.4-51-38.4 40.8-93 66.2-153.4 66.2-116 0-210-94-210-210 0-16.4 1.8-32.4 5.4-47.8-174.6 8.8-329.4 92.4-433 219.6-18-31-28.4-67.2-28.4-105.6 0-72.8 37-137.2 93.4-174.8-34.4 1-66.8 10.6-95.2 26.2 0-0.8 0-1.8 0-2.6 0-101.8 72.4-186.8 168.6-206-17.6-4.8-36.2-7.4-55.4-7.4-13.6 0-26.6 1.4-39.6 3.8 26.8-83.4 104.4-144.2 196.2-146-72-56.4-162.4-90-261-90-17 0-33.6 1-50.2 3 93.2-59.8 203.6-94.4 322.2-94.4 386.4 0 597.8 320.2 597.8 597.8 0 9.2-0.2 18.2-0.6 27.2 41 29.4 76.6 66.4 104.8 108.6z" />
<glyph unicode="&#xea9d;" glyph-name="youtube" d="M1013.8 652.8c0 0-10 70.6-40.8 101.6-39 40.8-82.6 41-102.6 43.4-143.2 10.4-358.2 10.4-358.2 10.4h-0.4c0 0-215 0-358.2-10.4-20-2.4-63.6-2.6-102.6-43.4-30.8-31-40.6-101.6-40.6-101.6s-10.2-82.8-10.2-165.8v-77.6c0-82.8 10.2-165.8 10.2-165.8s10-70.6 40.6-101.6c39-40.8 90.2-39.4 113-43.8 82-7.8 348.2-10.2 348.2-10.2s215.2 0.4 358.4 10.6c20 2.4 63.6 2.6 102.6 43.4 30.8 31 40.8 101.6 40.8 101.6s10.2 82.8 10.2 165.8v77.6c-0.2 82.8-10.4 165.8-10.4 165.8zM406.2 315.2v287.8l276.6-144.4-276.6-143.4z" />
<glyph unicode="&#xeaca;" glyph-name="linkedin2" d="M384 576h177.106v-90.782h2.532c24.64 44.194 84.958 90.782 174.842 90.782 186.946 0 221.52-116.376 221.52-267.734v-308.266h-184.61v273.278c0 65.184-1.334 149.026-96.028 149.026-96.148 0-110.82-70.986-110.82-144.292v-278.012h-184.542v576zM64 576h192v-576h-192v576zM256 736c0-53.019-42.981-96-96-96s-96 42.981-96 96c0 53.019 42.981 96 96 96s96-42.981 96-96z" />
</font>
</defs>
</svg>
